<svg width="79" height="115" viewBox="0 0 79 115" fill="none" xmlns="http://www.w3.org/2000/svg">
<path d="M39.3971 57.0592C38.9086 46.904 46.7253 38.2341 56.9 37.7446C67.033 37.2572 75.6856 45.0929 76.1761 55.29C76.6647 65.4453 68.8479 74.1151 58.6732 74.6046C48.5402 75.092 39.8856 67.2145 39.3971 57.0592Z" fill="#2C5F73"/>
<path d="M4.43102 95.6447C3.94249 85.4894 11.7593 76.8195 21.934 76.3301L40.3235 75.4454L41.2101 93.8754C41.6986 104.031 33.8818 112.701 23.7071 113.19C13.5324 113.679 4.92156 105.842 4.43102 95.6447Z" fill="#29386A"/>
<path d="M36.7393 1.81108L38.5105 38.6292L56.9 37.7446C67.033 37.2571 74.8935 28.6271 74.4029 18.43C73.9144 8.27469 65.3015 0.395185 55.1268 0.884646L36.7373 1.76929L36.7393 1.81108Z" fill="#1D2343"/>
<path d="M0.88854 22.0083C1.37707 32.1636 9.98995 40.0431 20.1646 39.5537L38.5542 38.669L36.781 1.80909L18.3915 2.69373C8.21677 3.18319 0.398002 11.8113 0.88854 22.0083Z" fill="#24204F"/>
<path d="M2.65978 58.8266C3.14831 68.9819 11.7612 76.8614 21.9359 76.3719L40.3254 75.4873L38.5522 38.6273L20.1627 39.512C9.98801 40.0014 2.17125 48.6713 2.65978 58.8266Z" fill="#5A3D7F"/>
</svg>
