<svg width="189" height="190" viewBox="0 0 189 190" fill="none" xmlns="http://www.w3.org/2000/svg">
<g clip-path="url(#clip0_9_38)">
<path d="M110.152 33.468L158.776 120.844L132.769 151.801L94.4476 164.349L31.4893 86.6431L110.152 33.468Z" fill="#34396D"/>
<path d="M128.074 144.751L149.089 119.736L107.536 45.0692L75.3828 66.8047L128.074 144.751Z" fill="#2F4268"/>
<path d="M75.139 96.4697L89.0701 87.0524L82.2266 76.9286L57.5332 93.6211L59.6048 96.1778L80.8844 122.44L102.922 107.543L96.0781 97.4193L83.047 106.228L75.139 96.4697ZM94.6319 120.522L84.7463 127.205L96.8713 142.168L120.935 134.288L120.972 134.245L113.852 123.712L113.816 123.753L100.791 128.122L94.6319 120.522Z" fill="white"/>
<path d="M23.644 59.2634L28.6485 55.8805L32.0846 60.9634L36.6626 57.8687L33.2265 52.7858L38.2313 49.4026L48.6365 64.7951L43.632 68.1781L40.1478 63.0238L35.5698 66.1185L39.054 71.2728L34.0495 74.6557L23.6444 59.2632L23.644 59.2634ZM48.2627 50.0586L43.8576 53.0363L40.407 47.9318L54.2253 38.5908L57.6759 43.6953L53.2681 46.675L60.2227 56.963L55.2182 60.3459L48.2636 50.0579L48.2633 50.0582L48.2627 50.0586ZM56.4182 37.1084L61.6364 33.581L68.5024 36.8196L68.0531 29.2433L73.2734 25.7144L83.6786 41.107L78.6945 44.4762L73.5371 36.8468L73.7937 44.6471L73.7074 44.7055L66.5626 41.5615L71.72 49.1909L66.8234 52.5009L56.4182 37.1084ZM75.7639 24.0309L80.77 20.6469L87.7359 30.9516L94.7736 26.1942L98.2128 31.282L86.1688 39.4236L75.7636 24.0311L75.7639 24.0309Z" fill="#141642"/>
<path d="M102.888 107.566L115.014 99.3689L122.746 113.272L113.823 123.744L120.943 134.276L137.243 114.877L136.235 113.067L120.532 84.8494L118.935 81.9685L96.0442 97.4424L102.888 107.566ZM89.0196 87.0508L89.0363 87.0755L112.823 70.9958L111.482 68.587L108.462 63.1511L106.861 60.2761L82.1927 76.9517L89.0198 87.0511L89.0196 87.0508Z" fill="white" fill-opacity="0.76"/>
</g>
<defs>
<clipPath id="clip0_9_38">
<rect width="134.36" height="138.127" fill="white" transform="translate(0 75.2466) rotate(-34.0583)"/>
</clipPath>
</defs>
</svg>
