<svg width="177" height="177" viewBox="0 0 177 177" fill="none" xmlns="http://www.w3.org/2000/svg">
<g clip-path="url(#clip0_9_50)">
<path d="M102.146 21.0436L23.0112 66.7319L75.682 141.835L113.642 132.332L140.852 104.209L102.146 21.0436Z" fill="#0277BD"/>
<path d="M66.6099 50.8704L109.476 125.117L131.244 102.619L98.4964 32.4607L66.6099 50.8704Z" fill="#039BE5"/>
<path d="M94.5087 50.2795L73.3286 62.5078L78.7037 71.8177L90.1084 65.2333L94.7852 74.9463L84.0788 81.1277L89.4539 90.4376L99.6948 84.525L105.044 95.4018L97.3822 104.17L103.026 113.945L117.919 97.2779L104.095 69.5712L94.5087 50.2795Z" fill="#3F3939" fill-opacity="0.76"/>
<path d="M73.78 62.585L79.1551 71.895L58.4405 83.8546L52.3672 74.9478L73.78 62.585ZM73.8238 87.3863L79.6644 96.4274L89.9053 90.5148L84.5302 81.2049L73.8238 87.3863ZM82.8174 100.814L73.5075 106.189L81.5965 118.587L103.477 114.022L97.8336 104.247L86.4096 106.498L82.8174 100.814Z" fill="#2B2966"/>
</g>
<defs>
<clipPath id="clip0_9_50">
<rect width="129.002" height="129.002" fill="white" transform="translate(0 64.501) rotate(-30)"/>
</clipPath>
</defs>
</svg>
