<svg width="130" height="130" viewBox="0 0 130 130" fill="none" xmlns="http://www.w3.org/2000/svg">
<g clip-path="url(#clip0_9_55)">
<path d="M16.1904 53.5318L75.9888 16.1901L113.33 75.9884L53.5321 113.33L16.1904 53.5318Z" fill="#182C5E"/>
<path d="M55.643 83.2395C54.4938 85.5548 53.4848 87.9211 55.1372 90.5672C56.5251 92.7897 58.3578 93.266 59.886 92.3117C61.7149 91.1697 61.6113 89.5581 61.1491 86.4482L60.8835 84.7509C60.1088 79.8574 60.5585 76.0003 64.9022 73.2878C68.9053 70.788 73.8655 71.9503 76.8559 76.7392C78.9855 80.1493 79.3344 83.3369 77.3452 87.0357L72.0681 84.5267C73.1357 82.5833 73.1615 81.1865 72.2 79.6466C71.2187 78.0753 69.6057 77.6995 68.3101 78.5086C66.7088 79.5085 66.6834 80.9097 67.1283 83.8296L67.394 85.5269C68.2995 91.299 67.9219 95.1089 63.4636 97.8929C58.6598 100.893 53.6579 98.7429 50.4776 93.6501C47.3669 88.6685 48.1003 84.2786 50.2115 80.7715L55.643 83.2395ZM43.489 64.0794C42.5089 65.8597 42.1488 67.86 43.296 69.6972C44.3935 71.4546 45.7195 72.0326 48.4187 70.347L66.0078 59.3634L69.465 64.8997L51.0255 76.4145C45.4327 79.9069 40.8621 78.252 37.9038 73.5146C35.2308 69.2341 36.2017 64.3334 38.1097 61.3919L43.489 64.0794Z" fill="white"/>
</g>
<defs>
<clipPath id="clip0_9_55">
<rect width="94" height="94" fill="white" transform="translate(79.7314) rotate(58.0169)"/>
</clipPath>
</defs>
</svg>
