<svg width="202" height="214" viewBox="0 0 202 214" fill="none" xmlns="http://www.w3.org/2000/svg">
<g clip-path="url(#clip0_9_44)">
<path d="M46.5933 132.065C42.4099 129.772 37.2151 131.157 35.0014 135.196C33.4967 137.942 33.7907 141.162 35.4586 143.709L56.2016 175.524C57.8116 178.112 60.0627 180.241 62.7369 181.706C64.5245 182.685 66.4023 183.307 68.2868 183.626L79.8425 186.339L95.0582 158.577C95.0786 158.638 46.6317 132.086 46.5918 132.064L46.5933 132.065Z" fill="url(#paint0_linear_9_44)"/>
<path d="M46.5933 132.065C42.4099 129.772 37.2151 131.157 35.0014 135.196C33.4967 137.942 33.7907 141.162 35.4586 143.709L56.2016 175.524C57.8116 178.112 60.0627 180.241 62.7369 181.706C64.5245 182.685 66.4023 183.307 68.2868 183.626L79.8425 186.339L95.0582 158.577C95.0786 158.638 46.6317 132.086 46.5918 132.064L46.5933 132.065Z" fill="url(#paint1_linear_9_44)"/>
<path d="M147.589 37.4029C146.419 36.2471 145.092 35.2623 143.647 34.4777C141.251 33.1646 138.597 32.3227 135.842 32.2398C135.289 32.1922 73.9028 31.9452 73.9028 31.9452C73.0808 31.9037 72.2566 31.9609 71.4731 32.0423C71.3722 32.0369 71.3088 32.0541 71.2056 32.0494C70.6904 32.1222 70.2142 32.2184 69.6997 32.2937C69.4721 32.3226 69.2227 32.3914 69.0375 32.4416C68.7279 32.5254 68.416 32.6098 68.1471 32.7179C67.2568 32.9942 65.5944 33.7135 65.5944 33.7135C62.6187 35.1732 60.1699 37.5202 58.5858 40.4306L21.1919 108.658C18.9774 112.699 20.6044 117.823 24.7878 120.116C25.8429 120.694 26.9258 121.032 28.0349 121.129L45.5758 121.208C48.6558 121.368 51.7029 120.435 54.0722 118.521C54.5941 118.145 55.14 117.63 55.6077 117.068C55.7334 116.933 55.8825 116.759 55.9683 116.603C56.0103 116.526 56.115 116.43 56.1579 116.352C56.3508 116.098 56.5623 115.807 56.712 115.534C56.8415 115.298 56.9906 115.124 57.1193 114.889L77.0206 78.5778L83.2319 67.2449C84.9729 64.0683 87.9621 61.9849 91.2925 61.21C91.2925 61.21 89.7203 61.5716 91.2925 61.21C92.8631 60.8476 94.6954 60.7802 96.6205 61.1229C98.5668 61.4233 144.333 69.0695 144.333 69.0695L156.734 46.4437L147.589 37.4029Z" fill="url(#paint2_linear_9_44)"/>
<path d="M147.589 37.4029C146.419 36.2471 145.092 35.2623 143.647 34.4777C141.251 33.1646 138.597 32.3227 135.842 32.2398C135.289 32.1922 73.9028 31.9452 73.9028 31.9452C73.0808 31.9037 72.2566 31.9609 71.4731 32.0423C71.3722 32.0369 71.3088 32.0541 71.2056 32.0494C70.6904 32.1222 70.2142 32.2184 69.6997 32.2937C69.4721 32.3226 69.2227 32.3914 69.0375 32.4416C68.7279 32.5254 68.416 32.6098 68.1471 32.7179C67.2568 32.9942 65.5944 33.7135 65.5944 33.7135C62.6187 35.1732 60.1699 37.5202 58.5858 40.4306L21.1919 108.658C18.9774 112.699 20.6044 117.823 24.7878 120.116C25.8429 120.694 26.9258 121.032 28.0349 121.129L45.5758 121.208C48.6558 121.368 51.7029 120.435 54.0722 118.521C54.5941 118.145 55.14 117.63 55.6077 117.068C55.7334 116.933 55.8825 116.759 55.9683 116.603C56.0103 116.526 56.115 116.43 56.1579 116.352C56.3508 116.098 56.5623 115.807 56.712 115.534C56.8415 115.298 56.9906 115.124 57.1193 114.889L77.0206 78.5778L83.2319 67.2449C84.9729 64.0683 87.9621 61.9849 91.2925 61.21C91.2925 61.21 89.7203 61.5716 91.2925 61.21C92.8631 60.8476 94.6954 60.7802 96.6205 61.1229C98.5668 61.4233 144.333 69.0695 144.333 69.0695L156.734 46.4437L147.589 37.4029Z" fill="url(#paint3_linear_9_44)"/>
<path d="M184.139 73.333L148.136 37.95C153.04 43.6469 154.038 50.975 150.556 57.3281C150.556 57.3281 87.2699 172.708 85.7826 175.512C82.3858 181.808 75.2993 184.911 68.2753 183.661C69.768 184.021 117.365 195.166 117.365 195.166C124.527 196.645 131.963 193.581 135.551 187.035L187.068 93.0384C190.674 86.5537 189.238 78.5745 184.139 73.333Z" fill="url(#paint4_linear_9_44)"/>
</g>
<defs>
<linearGradient id="paint0_linear_9_44" x1="36.6511" y1="142.185" x2="136.959" y2="209.598" gradientUnits="userSpaceOnUse">
<stop stop-color="#251D47"/>
<stop offset="0.6" stop-color="#373965"/>
</linearGradient>
<linearGradient id="paint1_linear_9_44" x1="104.864" y1="187.429" x2="60.3327" y2="157.501" gradientUnits="userSpaceOnUse">
<stop stop-color="#3F1E1E" stop-opacity="0.4"/>
<stop offset="1" stop-opacity="0"/>
</linearGradient>
<linearGradient id="paint2_linear_9_44" x1="152.236" y1="32.576" x2="11.5736" y2="104.899" gradientUnits="userSpaceOnUse">
<stop stop-color="white"/>
<stop offset="0.6" stop-color="#2E1314"/>
<stop offset="0.728" stop-color="#38161E"/>
<stop offset="0.847" stop-color="#2C194A"/>
<stop offset="0.942" stop-color="#261B3C"/>
<stop offset="1" stop-color="#151037"/>
</linearGradient>
<linearGradient id="paint3_linear_9_44" x1="155.162" y1="31.1905" x2="125.373" y2="46.5067" gradientUnits="userSpaceOnUse">
<stop stop-color="#19213A" stop-opacity="0.81"/>
<stop offset="1" stop-color="#1B2549" stop-opacity="0"/>
</linearGradient>
<linearGradient id="paint4_linear_9_44" x1="179.281" y1="44.2559" x2="100.5" y2="187.997" gradientUnits="userSpaceOnUse">
<stop stop-color="#151A47"/>
<stop offset="0.166" stop-color="#2A1A58"/>
<stop offset="0.313" stop-color="#1E1A4F"/>
<stop offset="0.429" stop-color="#191C5A"/>
<stop offset="0.5" stop-color="#1A2146"/>
</linearGradient>
<clipPath id="clip0_9_44">
<rect width="138" height="168" fill="white" transform="translate(80.7446) rotate(28.7261)"/>
</clipPath>
</defs>
</svg>
