<svg width="220" height="218" viewBox="0 0 220 218" fill="none" xmlns="http://www.w3.org/2000/svg">
<g clip-path="url(#clip0_9_64)">
<path d="M86.4448 9.2218L210.512 90.1251L133.322 208.497L9.25525 127.594L86.4448 9.2218Z" fill="url(#paint0_radial_9_64)"/>
<path d="M86.4445 9.22186L210.511 90.1252L133.322 208.497L9.25492 127.594L86.4445 9.22186ZM0.00850837 129.448L135.354 217.706L219.758 88.2713L84.4121 0.0131836L0.00850837 129.448ZM129.982 107.618C130.415 106.954 131.461 105.35 133.199 102.069C133.488 101.626 133.616 101.552 134.119 101.644C138.461 102.504 148.112 105.329 157.248 111.287C157.699 111.581 157.853 111.838 157.564 112.281L152.334 120.301C152.046 120.744 151.804 120.744 151.353 120.45C147.908 117.967 142.488 115.063 139.973 114.606L117.249 149.454C116.961 149.896 116.647 150.007 116.139 149.676L107.286 143.903C106.835 143.608 106.717 143.295 107.042 142.798L129.982 107.618L129.982 107.618ZM90.608 89.1162C91.8327 90.0725 92.8479 90.7345 95.1038 92.2056C101.702 96.5082 109.384 98.2856 115.119 89.4908C119.7 82.466 117.61 76.0572 110.053 71.1294C107.797 69.6585 105.582 68.3717 104.531 67.765L90.608 89.1162ZM99.7794 53.2355C100.032 52.8483 100.325 52.6451 100.776 52.9393C104.494 55.1269 109.867 58.473 115.45 62.1137C131.071 72.3002 132.412 85.1575 125.378 95.9438C116.217 109.993 101.908 109.256 89.1635 100.945C87.0204 99.5479 86.3595 98.9593 84.8369 97.9663L70.986 119.207C70.6975 119.649 70.3841 119.76 69.8764 119.429L61.1917 113.766C60.7406 113.472 60.623 113.159 60.9476 112.661L99.7227 53.1985L99.7794 53.2355Z" fill="white"/>
</g>
<defs>
<radialGradient id="paint0_radial_9_64" cx="0" cy="0" r="1" gradientUnits="userSpaceOnUse" gradientTransform="translate(110.008 62.3946) rotate(33.1082) scale(112.567 106.898)">
<stop stop-color="#5A58A2" stop-opacity="0.98"/>
<stop offset="1" stop-color="#4E1B67"/>
</radialGradient>
<clipPath id="clip0_9_64">
<rect width="161.579" height="154.554" fill="white" transform="translate(84.4209) rotate(33.1082)"/>
</clipPath>
</defs>
</svg>
