<svg width="139" height="139" viewBox="0 0 139 139" fill="none" xmlns="http://www.w3.org/2000/svg">
<path fill-rule="evenodd" clip-rule="evenodd" d="M79.5139 4.51198C74.1537 -0.848204 65.4854 -0.112439 60.5638 5.16442C55.8352 10.2339 49.2689 16.3573 42.5009 19.9379C35.7127 23.5273 29.7215 24.1124 24.8835 20.1184L20.1186 24.8834C24.1116 29.7223 23.5282 35.7118 19.9379 42.5005C16.3575 49.2687 10.2338 55.8349 5.16439 60.5634C-0.111728 65.4843 -0.848229 74.1534 4.51287 79.5145L59.437 134.439C64.7972 139.799 73.4648 139.062 78.3864 133.785C83.1149 128.716 89.6813 122.593 96.4493 119.012C103.238 115.422 109.222 114.831 114.06 118.825L118.825 114.06C114.832 109.221 115.422 103.238 119.012 96.4491C122.592 89.6817 128.716 83.1148 133.786 78.3862C139.062 73.4653 139.799 64.797 134.439 59.4368L79.5132 4.51124L79.5139 4.51198ZM77.5228 94.8578C70.5013 101.879 61.0173 100.912 52.3451 92.2397L37.5827 77.4773C37.1604 77.055 36.9236 76.4819 36.9242 75.884C36.9249 75.2862 37.163 74.7125 37.5863 74.2893L74.2893 37.5863C74.7125 37.1631 75.2862 36.9249 75.884 36.9243C76.4819 36.9236 77.055 37.1605 77.4773 37.5827L92.1557 52.2611C99.3868 59.4922 100.207 68.1636 94.1797 74.1908C89.9493 78.4211 82.9696 79.0158 78.2389 75.6121L78.0182 75.8327C82.9462 81.9781 82.8311 89.5495 77.5228 94.8578ZM85.5714 55.7941L77.1541 47.3768L65.2381 59.2928L72.3276 66.3823C77.8081 71.8628 83.0419 72.6729 86.9953 68.7195C90.6997 65.0139 90.1474 60.3701 85.5714 55.7941ZM60.5101 64.0208L47.3784 77.1525L56.1054 85.8795C61.8117 91.5857 67.1289 92.3135 71.4415 88.0009C75.754 83.6883 74.8593 78.3685 68.8709 72.3801L60.5109 64.02L60.5101 64.0208Z" fill="url(#paint0_linear_9_37)"/>
<defs>
<linearGradient id="paint0_linear_9_37" x1="358.919" y1="-211.602" x2="31.971" y2="106.973" gradientUnits="userSpaceOnUse">
<stop stop-color="white"/>
<stop offset="1" stop-color="#100A21"/>
</linearGradient>
</defs>
</svg>
